<?xml version="1.0" encoding="UTF-8"?>
<!DOCTYPE svg PUBLIC "-//W3C//DTD SVG 1.1//EN" "http://www.w3.org/Graphics/SVG/1.1/DTD/svg11.dtd">
<!-- Creator: CorelDRAW X8 -->
<svg xmlns="http://www.w3.org/2000/svg" xml:space="preserve" width="200px" height="200px" version="1.1" style="shape-rendering:geometricPrecision; text-rendering:geometricPrecision; image-rendering:optimizeQuality; fill-rule:evenodd; clip-rule:evenodd"
viewBox="0 0 21000 29700"
 xmlns:xlink="http://www.w3.org/1999/xlink"
 border="#FB5267">
 <defs>
  <style type="text/css">
   <![CDATA[
    .fil0 {fill:#FB5267;fill-rule:nonzero}
   ]]>
  </style>
 </defs>
 <g id="Layer_x0020_1">
  <metadata id="CorelCorpID_0Corel-Layer"/>
  <g id="_2298002040256">
   <g id="surface1">
    <path class="fil0" d="M10500 15244c508,0 920,-412 920,-920 0,-508 -412,-919 -920,-919 -508,0 -920,411 -920,919 1,508 412,920 920,920zm0 -1708c435,0 788,353 788,788 0,436 -353,789 -788,789 -435,0 -788,-353 -788,-789 0,-435 353,-788 788,-788zm0 0z"/>
    <path class="fil0" d="M12327 15631c-90,-57 -202,-64 -298,-19l-760 360c35,-91 22,-192 -33,-272 -55,-80 -146,-127 -243,-127l-795 0c-295,-276 -733,-331 -1087,-136l-8 4 -574 0 0 132 526 0 0 1117 -526 0 0 131 2310 0c220,0 436,-58 626,-168l852 -493c93,-54 152,-154 154,-262 2,-108 -53,-210 -144,-267zm-76 415l-852 493c-170,99 -363,150 -560,151l-1653 0 0 -1144c310,-165 690,-108 939,139 12,12 29,19 46,19l822 0c90,0 164,74 164,164 0,91 -74,165 -164,165l-822 0c-36,0 -65,29 -65,65 0,37 29,66 65,66l986 0c10,0 19,-2 28,-7l900 -426c86,-41 190,-7 234,78 45,85 14,189 -68,237l0 0zm0 0z"/>
    <path class="fil0" d="M9974 14324c1,-290 236,-525 526,-525l0 -132c-363,1 -657,295 -657,657l131 0zm0 0z"/>
    <path class="fil0" d="M10500 14981c363,0 657,-294 657,-657l-131 0c-1,290 -236,526 -526,526l0 131zm0 0z"/>
    <path class="fil0" d="M9175 13272c107,18 191,102 209,209 5,32 33,55 65,55 32,0 59,-23 65,-55 17,-107 101,-191 208,-209 32,-5 55,-32 55,-64 0,-33 -23,-60 -55,-65 -107,-18 -191,-102 -208,-209 -6,-32 -33,-55 -65,-55 -32,0 -60,23 -65,55 -18,107 -102,191 -209,209 -31,5 -54,32 -54,65 0,32 23,59 54,64zm274 -158c25,36 57,68 94,94 -37,25 -69,57 -94,93 -26,-36 -58,-68 -94,-93 36,-26 68,-58 94,-94zm0 0z"/>
    <path class="fil0" d="M11540 14915c107,18 191,102 209,209 6,31 33,54 65,54 32,0 59,-23 65,-54 18,-107 101,-191 209,-209 31,-6 54,-33 54,-65 0,-32 -23,-59 -54,-65 -108,-18 -191,-102 -209,-209 -6,-31 -33,-54 -65,-54 -32,0 -59,23 -65,54 -18,107 -102,191 -209,209 -31,6 -54,33 -54,65 0,32 23,59 54,65zm274 -159c26,37 57,68 94,94 -37,26 -68,57 -94,94 -26,-37 -57,-68 -94,-94 37,-26 68,-57 94,-94zm0 0z"/>
    <path class="fil0" d="M10434 13996c-109,0 -197,88 -197,197 0,109 88,197 197,197l132 0c36,0 65,29 65,66 0,36 -29,65 -65,65l-263 0 0 132 131 0 0 66 132 0 0 -66c109,0 197,-88 197,-197 0,-109 -88,-197 -197,-197l-132 0c-36,0 -65,-30 -65,-66 0,-36 29,-66 65,-66l263 0 0 -131 -131 0 0 -66 -132 0 0 66zm0 0z"/>
   </g>
  </g>
 </g>
</svg>
